<?xml version="1.0" encoding="utf-8"?>
<!-- Generator: Adobe Illustrator 21.0.0, SVG Export Plug-In . SVG Version: 6.00 Build 0)  -->
<svg version="1.1" id="Layer_1" xmlns="http://www.w3.org/2000/svg" xmlns:xlink="http://www.w3.org/1999/xlink" x="0px" y="0px"
	 viewBox="0 0 739.06 232.888" style="enable-background:new 0 0 739.06 232.888;" xml:space="preserve">
<style type="text/css">
	.st0{fill:#FFFFFF;}
</style>
<path class="st0" d="M395.001,166.142c-1.792,0-3.84-0.257-6.144-0.513c-3.584,2.816-7.424,5.12-11.264,6.656
	c-4.608,2.048-9.216,3.072-13.056,3.072c-16.896,0-17.919-19.968,5.12-19.968c3.072,0,5.632,0,8.192,0.256
	c3.584-5.12,7.424-11.52,10.496-17.92c6.656-14.08,10.24-27.904,3.84-27.904c-7.168,0-23.551,15.616-36.351,40.959
	c-13.568,27.392-23.552,62.463-26.624,74.495c-0.512,2.048-1.024,4.608-1.28,6.144c-0.256,2.049-8.192,2.305-12.8-1.535
	c-3.584-3.072-4.352-6.145,1.792-26.368c2.816-9.216,7.168-21.76,13.312-39.68c0.732-1.891,1.72-4.492,2.891-7.621
	c-6.137,4.33-13.82,7.079-23.625,6.597c-7.68,8.447-17.152,14.592-26.88,14.592c-13.627,0-21.029-10.202-21.238-24.715
	c-9.686,10.066-23.246,19.595-32.776,19.595c-6.912,0-12.8-4.864-12.8-15.104c0-11.52,11.52-35.584,7.168-36.864
	s-22.271,21.248-37.631,58.367c-0.768,2.305-2.048,3.584-4.864,3.584c-6.144,0-16.384-5.632-14.848-11.52
	c12.544-43.52,23.04-83.711,46.848-124.926c12.543-22.016,29.184-43.775,45.311-43.775c7.68,0,14.592,6.4,14.592,18.176
	c0,28.416-38.399,68.863-66.303,85.759c-7.168,16.128-12.288,28.928-12.288,29.952c0,0.768,0.512,0.256,0.768-0.256
	c15.616-22.784,28.16-30.976,37.631-30.976c8.192,0,14.336,5.888,14.336,14.08c0,9.984-8.192,28.16-8.192,35.839
	c0,2.304,0.768,3.84,2.56,3.84c4.307,0,13.877-7.273,21.271-14.868c4.666-26.259,29.259-55.787,48.871-55.787
	c8.192,0,13.568,5.12,13.568,13.056c0,6.144-2.048,3.84-7.68,5.376c-20.992,6.656-36.864,38.912-36.864,52.736
	c0,3.84,0.768,6.911,3.584,6.911c6.912,0,19.712-15.871,22.272-25.087c-7.168-15.616,3.328-30.72,12.544-30.72
	c4.608,0,8.959,4.096,8.959,13.312c0,9.472-4.864,21.76-12.032,32.256c8.415,0.481,15.475-4.684,22.029-11.04
	c9.411-25.754,23.276-65.514,24.048-75.743c0.256-3.584,15.872-2.56,15.872,8.192c0,6.4-4.352,17.408-13.567,40.448
	c-0.256,0.768-0.256,1.28,0.256,0.512c14.592-18.176,26.88-23.04,35.84-23.04c11.52,0,17.919,9.984,17.919,21.248
	c0,14.08-8.191,29.44-19.455,41.216c12.288,0,18.688-2.816,29.951-14.08l1.536-1.536c1.024-1.024,6.656,0,4.352,2.816l-2.048,2.56
	C421.625,160.253,410.361,166.142,395.001,166.142z M159.486,37.631c6.656,0,12.8,0.768,17.408,2.56
	c12.032,4.096,12.288,13.312,18.176,13.312c2.816,0,4.608-2.304,2.56-9.984c-2.816-9.728-10.24-20.735-19.2-26.368
	c-13.568-8.704-50.688-2.048-67.327,3.072C91.135,26.111,66.56,37.375,50.687,53.246C40.959,62.975,34.56,74.751,34.56,85.759
	c0,24.832,28.416,27.392,52.991,35.328c19.2,6.4,38.912,14.592,38.912,20.735c0,12.032-84.479,33.279-111.871,33.279
	C7.168,175.101,0,184.83,0,188.414c0,5.888,17.919,4.863,23.808,4.607c15.104-1.023,34.815-4.096,38.655-4.607
	c24.832-4.353,53.759-10.752,67.583-17.664c14.335-7.168,20.735-16.896,20.735-26.624c0-23.296-26.879-33.536-52.223-40.704
	c-22.528-6.144-42.239-8.96-42.239-17.152C56.319,67.071,119.55,37.631,159.486,37.631z M559.862,158.974
	c-22.271-7.168-67.327-6.4-92.158-3.328c25.344-28.928,112.895-101.631,131.07-116.479c9.728-7.936,11.264-8.192,7.936-13.312
	c-2.56-3.84-9.216-12.8-22.783-12.8c-3.072,0-6.145,0.256-9.729,0.256c-13.567,0-26.623,0-39.68-0.768
	c-27.647-1.536-37.375-5.632-51.711-10.752c-2.56-1.024-3.584-0.256-3.584,3.328c0,24.832,35.327,27.648,58.623,28.672
	c15.616,0.768,29.695,0.512,31.744,0.512c-16.128,12.8-50.688,38.656-92.927,77.311c-30.976,28.672-52.479,53.503-52.479,62.719
	c0,8.448,3.071,10.752,7.936,10.752c18.432-2.304,37.119-6.912,90.879-11.264c15.104-1.024,27.136-1.536,34.56-1.792
	c4.864,0,8.704,0.256,10.752-0.256c1.28-0.257,2.048-1.536,2.048-2.816C570.358,165.885,567.542,161.534,559.862,158.974z
	 M636.918,141.822l-1.536,1.536c-7.168,8.192-19.712,17.92-30.464,17.92c-4.864,0-6.912-2.561-6.912-6.912
	c0-5.632,3.328-13.824,8.192-22.528c5.632-9.728,13.567-19.968,15.359-24.832c2.304-6.4-15.104-8.704-22.016-2.56
	c-4.096,3.584-7.936,11.008-11.52,18.688c-6.4,13.568-8.96,23.552-8.96,30.976c0,14.592,12.544,18.688,19.968,18.688
	c17.407,0,28.928-13.056,40.191-25.6l2.048-2.56C643.574,141.822,637.942,140.798,636.918,141.822z M608.758,87.294
	c1.536,1.536,5.888,2.816,10.496,2.816c7.424,0,12.8-3.584,12.8-8.448c0-7.424-14.336-16.896-19.712-12.544
	C607.735,72.959,605.943,84.735,608.758,87.294z M667.125,152.318c-4.863,0-13.056,6.656-13.056,15.104
	c0,5.12,3.584,12.544,10.752,12.544c7.424,0,15.36-5.12,15.36-12.031c0-2.305-0.769-4.864-2.305-6.912
	C675.061,157.694,671.221,152.318,667.125,152.318z M720.884,0c-2.56,0-5.12,0.512-6.656,1.792
	c-3.84,4.096-29.439,50.943-46.591,129.022c-0.769,3.584,4.863,7.68,8.703,7.68c2.561,0,4.353-1.536,5.889-5.888
	C709.876,56.575,739.06,11.008,739.06,11.008C739.06,5.888,728.564,0,720.884,0z M215.807,84.735
	c9.984-8.448,19.968-19.712,27.904-30.464c14.08-19.712,17.664-33.792,13.568-33.792c-3.84,0-12.032,10.496-21.76,26.624
	C229.119,57.599,222.207,71.167,215.807,84.735z M372.218,162.301c-2.048-0.256-3.84-0.512-4.864-0.512
	c-7.168,0-7.68,5.12-2.816,5.12C366.586,166.91,369.402,165.118,372.218,162.301z"/>
</svg>
